<svg version="1.1" xmlns="http://www.w3.org/2000/svg" xmlns:xlink="http://www.w3.org/1999/xlink" width="384.83648" height="103.46464" viewBox="0,0,384.83648,103.46464"><defs><linearGradient x1="102.30114" y1="132.28817" x2="102.30114" y2="226.64257" gradientUnits="userSpaceOnUse" id="color-1"><stop offset="0" stop-color="#ffffff"/><stop offset="1" stop-color="#d7d7d7"/></linearGradient><linearGradient x1="237.67479" y1="144.34639" x2="237.67479" y2="188.65708" gradientUnits="userSpaceOnUse" id="color-2"><stop offset="0" stop-color="#ffffff"/><stop offset="1" stop-color="#d7d7d7"/></linearGradient><linearGradient x1="270.12481" y1="195.70886" x2="270.12481" y2="227.17904" gradientUnits="userSpaceOnUse" id="color-3"><stop offset="0" stop-color="#ffffff"/><stop offset="1" stop-color="#d7d7d7"/></linearGradient><linearGradient x1="409.02661" y1="144.3464" x2="409.02661" y2="175.81658" gradientUnits="userSpaceOnUse" id="color-4"><stop offset="0" stop-color="#ffffff"/><stop offset="1" stop-color="#d7d7d7"/></linearGradient><linearGradient x1="222.21144" y1="195.65622" x2="222.21144" y2="227.75777" gradientUnits="userSpaceOnUse" id="color-5"><stop offset="0" stop-color="#ffffff"/><stop offset="1" stop-color="#d7d7d7"/></linearGradient><linearGradient x1="181.67966" y1="185.6837" x2="181.67966" y2="227.75785" gradientUnits="userSpaceOnUse" id="color-6"><stop offset="0" stop-color="#ffffff"/><stop offset="1" stop-color="#d7d7d7"/></linearGradient><linearGradient x1="180.22461" y1="134.95273" x2="180.22461" y2="175.81642" gradientUnits="userSpaceOnUse" id="color-7"><stop offset="0" stop-color="#ffffff"/><stop offset="1" stop-color="#d7d7d7"/></linearGradient><linearGradient x1="314.80809" y1="195.60361" x2="314.80809" y2="227.75784" gradientUnits="userSpaceOnUse" id="color-8"><stop offset="0" stop-color="#ffffff"/><stop offset="1" stop-color="#d7d7d7"/></linearGradient><linearGradient x1="308.54752" y1="144.29375" x2="308.54752" y2="175.81647" gradientUnits="userSpaceOnUse" id="color-9"><stop offset="0" stop-color="#ffffff"/><stop offset="1" stop-color="#d7d7d7"/></linearGradient><linearGradient x1="362.64144" y1="144.95157" x2="362.64144" y2="176.39535" gradientUnits="userSpaceOnUse" id="color-10"><stop offset="0" stop-color="#ffffff"/><stop offset="1" stop-color="#d7d7d7"/></linearGradient><linearGradient x1="345.988" y1="195.65627" x2="345.988" y2="227.75791" gradientUnits="userSpaceOnUse" id="color-11"><stop offset="0" stop-color="#ffffff"/><stop offset="1" stop-color="#d7d7d7"/></linearGradient><linearGradient x1="263.97966" y1="132.63721" x2="263.97966" y2="175.81642" gradientUnits="userSpaceOnUse" id="color-12"><stop offset="0" stop-color="#ffffff"/><stop offset="1" stop-color="#d7d7d7"/></linearGradient><linearGradient x1="281.36097" y1="144.95157" x2="281.36097" y2="175.81642" gradientUnits="userSpaceOnUse" id="color-13"><stop offset="0" stop-color="#ffffff"/><stop offset="1" stop-color="#d7d7d7"/></linearGradient><linearGradient x1="208.81738" y1="144.95157" x2="208.81738" y2="175.81642" gradientUnits="userSpaceOnUse" id="color-14"><stop offset="0" stop-color="#ffffff"/><stop offset="1" stop-color="#d7d7d7"/></linearGradient><linearGradient x1="335.52064" y1="144.95157" x2="335.52064" y2="175.81642" gradientUnits="userSpaceOnUse" id="color-15"><stop offset="0" stop-color="#ffffff"/><stop offset="1" stop-color="#d7d7d7"/></linearGradient><linearGradient x1="335.45487" y1="129.58495" x2="335.45487" y2="138.63655" gradientUnits="userSpaceOnUse" id="color-16"><stop offset="0" stop-color="#ffffff"/><stop offset="1" stop-color="#d7d7d7"/></linearGradient><linearGradient x1="208.7516" y1="129.58495" x2="208.7516" y2="138.63655" gradientUnits="userSpaceOnUse" id="color-17"><stop offset="0" stop-color="#ffffff"/><stop offset="1" stop-color="#d7d7d7"/></linearGradient><linearGradient x1="281.29519" y1="129.58495" x2="281.29519" y2="138.63655" gradientUnits="userSpaceOnUse" id="color-18"><stop offset="0" stop-color="#ffffff"/><stop offset="1" stop-color="#d7d7d7"/></linearGradient></defs><g transform="translate(-47.97687,-129.58495)"><g data-paper-data="{&quot;isPaintingLayer&quot;:true}" fill-rule="nonzero" stroke-linejoin="miter" stroke-miterlimit="10" stroke-dasharray="" stroke-dashoffset="0" style="mix-blend-mode: normal"><g fill-opacity="0.27722" fill="#000000" stroke="none" stroke-width="1" stroke-linecap="butt"><path d="M219.32136,191.65702v-43.70545h7.99907l0.12408,3.63941c0.18695,-0.22617 0.39116,-0.44818 0.61267,-0.66606c1.07005,-1.05251 2.40323,-1.91206 3.99954,-2.57865c1.59631,-0.66658 3.27155,-0.99989 5.02574,-0.99989c2.6839,0 5.06959,0.6929 7.15706,2.07871c2.10502,1.38581 3.76273,3.28033 4.97311,5.68355c1.21039,2.38569 1.81559,5.13099 1.81559,8.23589c0,3.06983 -0.60519,5.81512 -1.81557,8.23589c-1.21039,2.40322 -2.86808,4.29774 -4.9731,5.68355c-2.08747,1.38581 -4.47317,2.07871 -7.15707,2.07871c-1.78927,0 -3.49083,-0.34206 -5.10467,-1.02619c-1.61384,-0.68413 -2.9821,-1.58754 -4.10478,-2.7102c-0.06266,-0.06366 -0.12406,-0.1276 -0.18418,-0.19183v16.24259zM235.21425,172.21191c1.50859,0 2.84178,-0.36838 3.99954,-1.10513c1.17531,-0.73675 2.09625,-1.77172 2.76284,-3.1049c0.66658,-1.35072 0.99989,-2.90318 0.99989,-4.65735c0,-1.75419 -0.3333,-3.28908 -0.99989,-4.60472c-0.66658,-1.31563 -1.57877,-2.34183 -2.73653,-3.07859c-1.14022,-0.7543 -2.48217,-1.13144 -4.02584,-1.13144c-1.56122,0 -2.92948,0.35961 -4.10479,1.07883c-1.15776,0.71921 -2.06994,1.75418 -2.73653,3.1049c-0.64906,1.33318 -0.97356,2.87685 -0.97356,4.63104c0,1.75419 0.32452,3.30664 0.97358,4.65736c0.66658,1.33318 1.57876,2.36814 2.73652,3.1049c1.17531,0.73675 2.54357,1.10514 4.10479,1.10514z"/><path d="M243.83809,230.17887v-30.86483h7.99907l0.12741,4.07747c0.17516,-0.23552 0.36072,-0.46324 0.55672,-0.68312c0.71921,-0.82446 1.54368,-1.52614 2.47339,-2.10502c0.92971,-0.59643 1.92084,-1.06128 2.97334,-1.39456c1.05251,-0.3333 2.10502,-0.49994 3.15753,-0.49994c1.59631,0 3.03473,0.25436 4.31529,0.76308c1.28056,0.5087 2.36815,1.29809 3.26278,2.36814c0.60584,0.72463 1.1232,1.60615 1.55205,2.64453c0.45024,-0.72196 0.9854,-1.39297 1.60547,-2.01302c0.77184,-0.78938 1.64017,-1.45597 2.60497,-1.99977c0.98233,-0.5438 1.99976,-0.97356 3.05227,-1.28932c1.05251,-0.31575 2.08748,-0.47363 3.10491,-0.47363c2.40323,0 4.40299,0.4824 5.9993,1.44721c1.59631,0.94726 2.78915,2.37692 3.57853,4.28898c0.80693,1.91207 1.21039,4.24511 1.21039,6.99919v18.73467h-8.2885v-18.15579c0,-1.40334 -0.19296,-2.55232 -0.57888,-3.44696c-0.38592,-0.89463 -0.95604,-1.56122 -1.71032,-1.99976c-0.73676,-0.45608 -1.68401,-0.68413 -2.84177,-0.68413c-0.89463,0 -1.72787,0.14911 -2.49971,0.44733c-0.7543,0.2982 -1.41211,0.71045 -1.97344,1.23671c-0.56133,0.5087 -0.99988,1.13146 -1.31564,1.86821c-0.31576,0.71921 -0.47363,1.48229 -0.47363,2.28922v18.44523h-8.34113v-18.20842c0,-1.28056 -0.19295,-2.37692 -0.57888,-3.28908c-0.38592,-0.91218 -0.94726,-1.60507 -1.68402,-2.0787c-0.73676,-0.47363 -1.64894,-0.71043 -2.73652,-0.71043c-0.89463,0 -1.72787,0.14911 -2.4997,0.44733c-0.7543,0.2982 -1.40334,0.71045 -1.94714,1.23671c-0.5438,0.5087 -0.97357,1.1139 -1.28932,1.81558c-0.31575,0.70168 -0.47362,1.46474 -0.47362,2.28922v18.49786z"/><path d="M382.73989,178.81641v-30.86484h7.99907l0.12741,4.07747c0.17516,-0.23552 0.36071,-0.46324 0.55672,-0.68312c0.71921,-0.82446 1.54368,-1.52614 2.47339,-2.10502c0.92971,-0.59643 1.92084,-1.06128 2.97335,-1.39457c1.05251,-0.3333 2.10502,-0.49993 3.15753,-0.49993c1.59631,0 3.03473,0.25435 4.31529,0.76307c1.28056,0.5087 2.36815,1.29809 3.26278,2.36814c0.60584,0.72463 1.1232,1.60615 1.55205,2.64453c0.45024,-0.72196 0.9854,-1.39297 1.60547,-2.01302c0.77184,-0.78938 1.64016,-1.45596 2.60497,-1.99976c0.98233,-0.5438 1.99977,-0.97356 3.05228,-1.28931c1.05251,-0.31575 2.08747,-0.47363 3.1049,-0.47363c2.40323,0 4.40299,0.48241 5.9993,1.44721c1.59631,0.94726 2.78915,2.37692 3.57853,4.28898c0.80693,1.91207 1.21039,4.24511 1.21039,6.99918v18.73467h-8.2885v-18.15578c0,-1.40334 -0.19296,-2.55233 -0.57888,-3.44696c-0.38592,-0.89463 -0.95603,-1.56122 -1.71032,-1.99976c-0.73676,-0.45608 -1.68402,-0.68413 -2.84178,-0.68413c-0.89463,0 -1.72787,0.14911 -2.4997,0.44733c-0.7543,0.2982 -1.41211,0.71045 -1.97345,1.23671c-0.56133,0.5087 -0.99988,1.13146 -1.31563,1.86821c-0.31576,0.71921 -0.47363,1.48229 -0.47363,2.28922v18.44523h-8.34113v-18.20841c0,-1.28056 -0.19295,-2.37692 -0.57888,-3.28908c-0.38592,-0.91218 -0.94726,-1.60506 -1.68401,-2.07869c-0.73676,-0.47363 -1.64894,-0.71044 -2.73653,-0.71044c-0.89463,0 -1.72787,0.14911 -2.4997,0.44733c-0.7543,0.2982 -1.40334,0.71045 -1.94714,1.23671c-0.5438,0.5087 -0.97356,1.11391 -1.28932,1.81559c-0.31576,0.70168 -0.47363,1.46474 -0.47363,2.28922v18.49786z"/><path d="M217.47484,230.75775c-2.57865,0 -4.90294,-0.70168 -6.97287,-2.10502c-2.05239,-1.40334 -3.68379,-3.30663 -4.89417,-5.70986c-1.19284,-2.42077 -1.78927,-5.1836 -1.78927,-8.28851c0,-3.10491 0.6052,-5.85898 1.81558,-8.2622c1.22794,-2.42077 2.8944,-4.31529 4.99942,-5.68355c2.10502,-1.36826 4.49948,-2.05239 7.18338,-2.05239c1.50859,0 2.89441,0.22805 4.15742,0.68413c1.28056,0.43855 2.39446,1.05251 3.34172,1.84189c0.79068,0.64425 1.48358,1.37405 2.07871,2.18942v-4.05763h8.20957v30.86485h-8.34113v-4.01788c-0.62177,0.78204 -1.36731,1.48983 -2.23658,2.12336c-1.03496,0.7543 -2.19272,1.35949 -3.47328,1.81559c-1.28056,0.43855 -2.64004,0.65783 -4.07846,0.65783zM219.73773,223.57437c1.56122,0 2.92073,-0.36838 4.07849,-1.10513c1.17531,-0.73675 2.07871,-1.77172 2.71022,-3.10491c0.64906,-1.35072 0.97358,-2.9207 0.97358,-4.70997c0,-1.75419 -0.32453,-3.28908 -0.97356,-4.60472c-0.63151,-1.33318 -1.53492,-2.37692 -2.71021,-3.13121c-1.15776,-0.7543 -2.51725,-1.13144 -4.07847,-1.13144c-1.50859,0 -2.84177,0.37715 -3.99953,1.13146c-1.14022,0.7543 -2.04362,1.79804 -2.7102,3.13123c-0.66658,1.31563 -0.99988,2.85055 -0.99988,4.60474c0,1.78927 0.3333,3.35926 0.99988,4.70999c0.66658,1.33318 1.56999,2.36815 2.71022,3.1049c1.15776,0.73675 2.49094,1.10513 3.99953,1.10513z"/><path d="M180.46891,230.75775c-3.15753,0 -6.05193,-0.53503 -8.6832,-1.60507c-2.61372,-1.07005 -4.87662,-2.55233 -6.78869,-4.44684c-1.91207,-1.91207 -3.38557,-4.14864 -4.42054,-6.70974c-1.01743,-2.57865 -1.52614,-5.3678 -1.52614,-8.36745c0,-2.99965 0.53503,-5.77126 1.60509,-8.31483c1.07005,-2.54357 2.58742,-4.75383 4.55211,-6.6308c1.96469,-1.89452 4.26266,-3.36803 6.89393,-4.42054c2.64882,-1.05251 5.552,-1.57877 8.70953,-1.57877c2.17519,0 4.25389,0.29821 6.23612,0.89464c1.99977,0.57888 3.81535,1.37704 5.44674,2.39446c1.63139,0.99989 2.99088,2.15765 4.07849,3.47328l-5.42042,5.73618c-1.01743,-0.98234 -2.06994,-1.80681 -3.15753,-2.4734c-1.08758,-0.68413 -2.24535,-1.21038 -3.47328,-1.57876c-1.22794,-0.38592 -2.48217,-0.57888 -3.76271,-0.57888c-1.82434,0 -3.50836,0.3333 -5.05204,0.99988c-1.54369,0.66658 -2.90318,1.58754 -4.07846,2.76284c-1.15776,1.15776 -2.06117,2.5348 -2.71021,4.13111c-0.63151,1.59631 -0.94726,3.32417 -0.94726,5.18362c0,1.84189 0.34207,3.56976 1.02621,5.18362c0.68413,1.61384 1.61384,3.0172 2.78915,4.21004c1.19284,1.17531 2.58743,2.10502 4.18374,2.78915c1.59631,0.68413 3.30663,1.02621 5.13099,1.02621c1.33318,0 2.56987,-0.19296 3.7101,-0.57888c1.14022,-0.40346 2.14887,-0.96481 3.02597,-1.68402c0.87708,-0.71921 1.56122,-1.56122 2.05239,-2.52603c0.45539,-0.91079 0.69968,-1.86682 0.73285,-2.86808h-10.49487v-7.28861h18.89255c0.03508,0.42101 0.07894,0.94725 0.13157,1.57876c0.07018,0.61396 0.11403,1.22794 0.13157,1.8419c0.01755,0.59643 0.02632,1.07005 0.02632,1.42088c0,2.64882 -0.47363,5.07836 -1.42089,7.28863c-0.94726,2.21027 -2.27167,4.11356 -3.97322,5.70987c-1.68401,1.59631 -3.675,2.833 -5.97298,3.7101c-2.29798,0.87708 -4.78892,1.31564 -7.47281,1.31564z"/><path d="M161.43702,178.81641v-5.94668l20.07799,-26.78637h-18.55182v-8.13063h30.39122v5.89406l-20.19874,27.15474h20.85655v7.81489z"/><path d="M313.93214,230.75775c-3.35048,0 -6.27998,-0.67536 -8.78845,-2.02608c-2.50847,-1.36826 -4.45562,-3.23646 -5.84143,-5.6046c-1.36823,-2.38569 -2.05235,-5.11344 -2.05235,-8.18325c0,-2.40322 0.38591,-4.59597 1.15771,-6.57819c0.78938,-1.99977 1.87697,-3.72763 3.26278,-5.1836c1.40334,-1.45596 3.06983,-2.57865 4.99942,-3.36803c1.9296,-0.80693 4.01708,-1.21039 6.26243,-1.21039c2.10502,0 4.05216,0.3947 5.84143,1.18408c1.78927,0.77184 3.33295,1.85067 4.63104,3.23648c1.31563,1.36826 2.3243,2.99965 3.02598,4.89417c0.70168,1.87697 1.00866,3.91183 0.92095,6.10455l-0.05263,2.55234h-22.01523c0.19349,0.93931 0.51517,1.79886 0.96504,2.57865c0.80693,1.35072 1.93836,2.412 3.39435,3.18385c1.45596,0.7543 3.17508,1.13146 5.1573,1.13146c1.36826,0 2.61372,-0.2105 3.7364,-0.63151c1.14022,-0.43855 2.3506,-1.18407 3.63116,-2.23658l3.97323,5.552c-1.14022,1.01743 -2.39445,1.86821 -3.76271,2.55235c-1.35071,0.66658 -2.7453,1.17531 -4.18372,1.52614c-1.43844,0.35083 -2.85932,0.52625 -4.26266,0.52625zM319.53676,211.26001c-0.07018,-1.05251 -0.41223,-1.99099 -1.02619,-2.81545c-0.59643,-0.84201 -1.36826,-1.49981 -2.31552,-1.97344c-0.92971,-0.49117 -1.97344,-0.73676 -3.1312,-0.73676c-1.71909,0 -3.17508,0.3333 -4.36792,0.99989c-1.17531,0.64906 -2.0787,1.61384 -2.7102,2.8944c-0.27213,0.5676 -0.48395,1.19033 -0.63546,1.86821h14.18653z"/><path d="M291.86495,178.81641v-30.86484h7.94645l0.15197,4.03532c0.22749,-0.29154 0.47506,-0.57537 0.74266,-0.85148c1.12268,-1.15776 2.45585,-2.08747 3.99953,-2.78915c1.56122,-0.70168 3.20138,-1.05251 4.92049,-1.05251c2.33307,0 4.28021,0.47363 5.84143,1.42089c1.57876,0.92971 2.76284,2.34183 3.55222,4.23635c0.80693,1.87697 1.21039,4.19249 1.21039,6.94656v18.91887h-8.2885v-18.26103c0,-1.40334 -0.19296,-2.56988 -0.57888,-3.49959c-0.38592,-0.94726 -0.98234,-1.63139 -1.78927,-2.05239c-0.78938,-0.42101 -1.76295,-0.61396 -2.9207,-0.57888c-0.94726,0 -1.82434,0.14911 -2.63127,0.44733c-0.78938,0.28068 -1.46474,0.6929 -2.02608,1.23671c-0.56133,0.5438 -1.00865,1.16653 -1.34194,1.86821c-0.3333,0.70168 -0.49993,1.46474 -0.49993,2.28922v18.55048c-0.89463,0 -5.77125,0 -6.47293,0c-0.70168,0 -1.30686,0 -1.81557,0z"/><path d="M356.65497,179.39529c-2.24535,0 -4.18372,-0.49118 -5.81511,-1.47351c-1.61384,-0.99989 -2.85932,-2.42077 -3.73641,-4.26266c-0.85956,-1.85944 -1.28931,-4.08724 -1.28931,-6.68344v-19.0241h8.28852v17.68216c0,1.40334 0.22805,2.62249 0.68413,3.65747c0.47363,1.01743 1.13146,1.79805 1.97346,2.34185c0.85956,0.5438 1.91206,0.8157 3.15753,0.8157c0.89463,0 1.71909,-0.14032 2.4734,-0.421c0.77184,-0.2982 1.43843,-0.71921 1.99976,-1.26301c0.56133,-0.5438 0.99989,-1.18407 1.31564,-1.92082c0.31576,-0.73675 0.47363,-1.53491 0.47363,-2.39445v-18.49785h8.28852v30.86485h-7.89382l-0.19304,-4.24698c-0.27528,0.38424 -0.57931,0.75616 -0.91209,1.11577c-1.08758,1.15776 -2.39445,2.06993 -3.92059,2.73652c-1.50859,0.64906 -3.13998,0.97358 -4.89417,0.97358z"/><path d="M343.86946,230.75775c-2.87685,0 -5.43797,-0.47363 -7.68331,-1.42089c-2.22782,-0.96481 -4.02585,-2.28044 -5.39411,-3.94691l5.20992,-4.42054c1.15776,1.28056 2.47339,2.20148 3.94691,2.76283c1.49106,0.56134 2.97334,0.84201 4.44686,0.84201c0.59643,0 1.13145,-0.0614 1.60508,-0.18418c0.49117,-0.14033 0.91218,-0.3333 1.26301,-0.57888c0.35083,-0.26313 0.61395,-0.57888 0.78938,-0.94726c0.17543,-0.36838 0.26313,-0.77184 0.26313,-1.21039c0,-0.85956 -0.35083,-1.51737 -1.05251,-1.97344c-0.38592,-0.24558 -0.99111,-0.50871 -1.81557,-0.78938c-0.80693,-0.2982 -1.85944,-0.62273 -3.15753,-0.97356c-1.98222,-0.5087 -3.66624,-1.09636 -5.05205,-1.76295c-1.36826,-0.68413 -2.46462,-1.45596 -3.28908,-2.31552c-0.70168,-0.82446 -1.23669,-1.71032 -1.60507,-2.65758c-0.36838,-0.94726 -0.55256,-2.00855 -0.55256,-3.18384c0,-1.40334 0.30698,-2.67512 0.92095,-3.81534c0.63151,-1.15776 1.49984,-2.1401 2.60497,-2.94702c1.12268,-0.82446 2.40322,-1.45597 3.84166,-1.89452c1.43844,-0.45608 2.9558,-0.68413 4.55211,-0.68413c1.59631,0 3.14875,0.20173 4.65736,0.6052c1.52614,0.38592 2.93825,0.93849 4.23636,1.65771c1.29809,0.71921 2.43832,1.56122 3.42066,2.52602l-4.44684,4.89417c-0.70168,-0.64906 -1.49106,-1.24546 -2.36815,-1.78927c-0.87709,-0.5438 -1.78049,-0.97356 -2.7102,-1.28932c-0.92971,-0.31575 -1.76295,-0.47363 -2.49971,-0.47363c-0.66658,0 -1.26301,0.0614 -1.78927,0.1842c-0.52625,0.10525 -0.96481,0.28945 -1.31563,0.55257c-0.35083,0.24558 -0.61396,0.5438 -0.78939,0.89463c-0.17543,0.35083 -0.26313,0.74554 -0.26313,1.18409c0,0.42101 0.10525,0.82446 0.31575,1.21039c0.22805,0.38592 0.53503,0.71921 0.92095,0.99988c0.421,0.22805 1.05252,0.49995 1.89452,0.8157c0.842,0.31575 1.98222,0.66658 3.42066,1.05251c1.85944,0.5087 3.4382,1.07883 4.73629,1.71034c1.31563,0.61396 2.35938,1.32441 3.13122,2.13134c0.66658,0.70168 1.14899,1.49983 1.44721,2.39447c0.31576,0.89463 0.47363,1.88574 0.47363,2.97335c0,1.91207 -0.53503,3.61361 -1.60507,5.10467c-1.07006,1.47351 -2.54357,2.64005 -4.42054,3.49961c-1.85944,0.84201 -3.95569,1.26301 -6.28874,1.26301z"/><path d="M257.3354,178.81641v-43.1792h8.28852v43.17921z"/><path d="M274.71671,178.81641v-30.86484h8.28852v30.86485z"/><path d="M202.17312,178.81641v-30.86484h8.28852v30.86485z"/><path d="M328.87639,178.81641v-30.86484h8.28852v30.86485z"/><path d="M332.95485,141.63652c-1.59631,0 -2.84178,-0.39469 -3.73641,-1.18407c-0.89463,-0.80693 -1.34194,-1.9296 -1.34194,-3.36803c0,-1.31563 0.45608,-2.39445 1.36826,-3.23646c0.92971,-0.84201 2.16642,-1.26301 3.7101,-1.26301c1.59631,0 2.84178,0.40346 3.73641,1.21039c0.89463,0.78938 1.34196,1.88575 1.34196,3.2891c0,1.33318 -0.45609,2.42954 -1.36827,3.2891c-0.91218,0.84201 -2.14887,1.26301 -3.71008,1.26301z"/><path d="M206.25159,141.63652c-1.59631,0 -2.84178,-0.39469 -3.73641,-1.18407c-0.89463,-0.80693 -1.34194,-1.9296 -1.34194,-3.36803c0,-1.31563 0.45608,-2.39445 1.36826,-3.23646c0.92971,-0.84201 2.16642,-1.26301 3.7101,-1.26301c1.59631,0 2.84178,0.40346 3.73641,1.21039c0.89463,0.78938 1.34195,1.88575 1.34195,3.2891c0,1.33318 -0.45608,2.42954 -1.36826,3.2891c-0.91218,0.84201 -2.14888,1.26301 -3.71009,1.26301z"/><path d="M278.79517,141.63652c-1.59631,0 -2.84177,-0.39469 -3.7364,-1.18407c-0.89463,-0.80693 -1.34194,-1.9296 -1.34194,-3.36803c0,-1.31563 0.45608,-2.39445 1.36826,-3.23646c0.92971,-0.84201 2.16642,-1.26301 3.7101,-1.26301c1.59631,0 2.84177,0.40346 3.73641,1.21039c0.89463,0.78938 1.34196,1.88575 1.34196,3.2891c0,1.33318 -0.45608,2.42954 -1.36826,3.2891c-0.91218,0.84201 -2.14887,1.26301 -3.71009,1.26301z"/></g><path d="M79.35582,204.71725c-10.78479,1.19588 -26.61123,2.90679 -27.58557,12.53089c2.54625,11.03129 24.11832,12.00427 49.84906,12.05145c24.38947,0.04471 45.58672,-6.35952 45.89703,-16.45917c0.15858,-5.16111 -15.76357,-14.31634 -33.38968,-17.70718c-13.86619,-2.66753 -36.71825,-1.26641 -44.74518,-0.02061c-1.27228,0.19746 -2.43755,-0.14474 -2.20094,-1.44874c0.76571,-4.22024 2.25897,-14.67678 1.16882,-27.53214c-4.57263,-18.22574 -5.73329,-23.42029 -8.46372,-28.70257c-0.96213,-1.86134 -0.49466,-2.77994 1.37059,-2.39878c8.06424,1.64791 26.58293,4.84409 43.9132,5.79395c18.42334,0.56451 30.8507,-4.34462 36.8397,-5.74394c1.99208,-0.46545 2.53613,1.35794 1.91472,3.34563c-1.62061,5.18386 -9.68706,51.88197 -9.68706,51.88197" fill="none" stroke-opacity="0.30864" stroke="#000000" stroke-width="7.5" stroke-linecap="round"/><path d="M82.01308,202.05999c-10.78479,1.19588 -26.61123,2.90679 -27.58557,12.53089c2.54625,11.03129 24.11832,12.00427 49.84906,12.05145c24.38947,0.04471 45.58672,-6.35952 45.89703,-16.45917c0.15858,-5.16111 -15.76357,-14.31634 -33.38968,-17.70718c-13.86619,-2.66753 -36.71825,-1.26641 -44.74518,-0.02061c-1.27228,0.19746 -2.43755,-0.14474 -2.20094,-1.44874c0.76571,-4.22024 2.25897,-14.67678 1.16882,-27.53214c-4.57263,-18.22574 -5.73329,-23.42029 -8.46372,-28.70257c-0.96213,-1.86134 -0.49466,-2.77994 1.37059,-2.39878c8.06424,1.64791 26.58293,4.84409 43.9132,5.79395c18.42334,0.56451 30.8507,-4.34462 36.8397,-5.74394c1.99208,-0.46545 2.53613,1.35794 1.91472,3.34563c-1.62061,5.18386 -9.68706,51.88197 -9.68706,51.88197" fill="none" stroke="url(#color-1)" stroke-width="7.5" stroke-linecap="round"/><g stroke="none" stroke-width="1" stroke-linecap="butt"><path d="M221.82136,188.65702v-43.70545h7.99907l0.12408,3.63941c0.18694,-0.22616 0.39116,-0.44818 0.61268,-0.66606c1.07006,-1.05251 2.40322,-1.91206 3.99954,-2.57865c1.59631,-0.66658 3.27155,-0.99988 5.02574,-0.99988c2.6839,0 5.06959,0.6929 7.15706,2.07871c2.10502,1.38581 3.76273,3.28033 4.97312,5.68355c1.21039,2.38569 1.81559,5.13099 1.81559,8.23589c0,3.06982 -0.60518,5.81512 -1.81557,8.23589c-1.21039,2.40322 -2.86808,4.29774 -4.9731,5.68355c-2.08747,1.38581 -4.47316,2.07871 -7.15706,2.07871c-1.78927,0 -3.49083,-0.34206 -5.10467,-1.02619c-1.61384,-0.68413 -2.9821,-1.58754 -4.10479,-2.7102c-0.06266,-0.06366 -0.12406,-0.1276 -0.18418,-0.19183v16.24259zM237.71425,169.21191c1.50859,0 2.84178,-0.36838 3.99954,-1.10513c1.17531,-0.73676 2.09625,-1.77172 2.76285,-3.1049c0.66658,-1.35071 0.99988,-2.90317 0.99988,-4.65735c0,-1.75419 -0.3333,-3.28908 -0.99988,-4.60472c-0.66658,-1.31564 -1.57876,-2.34182 -2.73652,-3.07858c-1.14021,-0.7543 -2.48217,-1.13144 -4.02584,-1.13144c-1.56122,0 -2.92948,0.3596 -4.10479,1.07883c-1.15776,0.71921 -2.06994,1.75419 -2.73652,3.1049c-0.64905,1.33318 -0.97356,2.87685 -0.97356,4.63104c0,1.75419 0.32453,3.30663 0.97358,4.65736c0.66658,1.33318 1.57876,2.36815 2.73652,3.1049c1.17531,0.73676 2.54357,1.10513 4.10479,1.10513z" fill="url(#color-2)"/><path d="M246.33809,227.17886v-30.86484h7.99907l0.12741,4.07747c0.17515,-0.23553 0.36072,-0.46324 0.55672,-0.68312c0.71921,-0.82446 1.54369,-1.52614 2.4734,-2.10502c0.92971,-0.59643 1.92084,-1.06128 2.97335,-1.39457c1.05251,-0.3333 2.10502,-0.49993 3.15753,-0.49993c1.59631,0 3.03473,0.25435 4.31529,0.76308c1.28056,0.50871 2.36815,1.29809 3.26278,2.36815c0.60584,0.72463 1.1232,1.60615 1.55206,2.64453c0.45024,-0.72195 0.9854,-1.39297 1.60547,-2.01302c0.77183,-0.78938 1.64016,-1.45597 2.60497,-1.99977c0.98234,-0.5438 1.99977,-0.97356 3.05228,-1.28932c1.05251,-0.31575 2.08747,-0.47363 3.1049,-0.47363c2.40322,0 4.40299,0.4824 5.9993,1.44721c1.59631,0.94726 2.78915,2.37692 3.57853,4.28898c0.80693,1.91206 1.21039,4.24512 1.21039,6.99919v18.73467h-8.2885v-18.15579c0,-1.40334 -0.19295,-2.55233 -0.57888,-3.44696c-0.38593,-0.89463 -0.95603,-1.56122 -1.71032,-1.99977c-0.73676,-0.45608 -1.68401,-0.68413 -2.84178,-0.68413c-0.89463,0 -1.72787,0.1491 -2.4997,0.44732c-0.7543,0.29821 -1.41211,0.71045 -1.97345,1.23671c-0.56133,0.50871 -0.99988,1.13146 -1.31564,1.86821c-0.31575,0.71921 -0.47363,1.48229 -0.47363,2.28922v18.44524h-8.34113v-18.20841c0,-1.28056 -0.19295,-2.37692 -0.57888,-3.28908c-0.38593,-0.91218 -0.94726,-1.60507 -1.68401,-2.0787c-0.73676,-0.47363 -1.64894,-0.71044 -2.73652,-0.71044c-0.89463,0 -1.72787,0.1491 -2.4997,0.44732c-0.7543,0.29821 -1.40334,0.71045 -1.94714,1.23671c-0.5438,0.50871 -0.97356,1.11391 -1.28932,1.81559c-0.31575,0.70168 -0.47363,1.46474 -0.47363,2.28922v18.49786z" fill="url(#color-3)"/><path d="M385.23989,175.81641v-30.86484h7.99907l0.12741,4.07747c0.17515,-0.23553 0.36072,-0.46324 0.55672,-0.68312c0.71921,-0.82446 1.54369,-1.52614 2.4734,-2.10502c0.92971,-0.59643 1.92084,-1.06128 2.97335,-1.39457c1.05251,-0.3333 2.10502,-0.49993 3.15753,-0.49993c1.59631,0 3.03473,0.25435 4.31529,0.76308c1.28056,0.50871 2.36815,1.29809 3.26278,2.36815c0.60584,0.72463 1.1232,1.60615 1.55206,2.64453c0.45024,-0.72195 0.9854,-1.39297 1.60547,-2.01302c0.77183,-0.78938 1.64016,-1.45597 2.60497,-1.99977c0.98234,-0.5438 1.99977,-0.97356 3.05228,-1.28932c1.05251,-0.31575 2.08747,-0.47363 3.1049,-0.47363c2.40322,0 4.40299,0.4824 5.9993,1.44721c1.59631,0.94726 2.78915,2.37692 3.57853,4.28898c0.80693,1.91206 1.21039,4.24512 1.21039,6.99919v18.73467h-8.2885v-18.15579c0,-1.40334 -0.19295,-2.55233 -0.57888,-3.44696c-0.38593,-0.89463 -0.95603,-1.56122 -1.71032,-1.99977c-0.73676,-0.45608 -1.68401,-0.68413 -2.84178,-0.68413c-0.89463,0 -1.72787,0.1491 -2.4997,0.44732c-0.7543,0.29821 -1.41211,0.71045 -1.97345,1.23671c-0.56133,0.50871 -0.99988,1.13146 -1.31564,1.86821c-0.31575,0.71921 -0.47363,1.48229 -0.47363,2.28922v18.44524h-8.34113v-18.20841c0,-1.28056 -0.19295,-2.37692 -0.57888,-3.28908c-0.38593,-0.91218 -0.94726,-1.60507 -1.68401,-2.0787c-0.73676,-0.47363 -1.64894,-0.71044 -2.73652,-0.71044c-0.89463,0 -1.72787,0.1491 -2.4997,0.44732c-0.7543,0.29821 -1.40334,0.71045 -1.94714,1.23671c-0.5438,0.50871 -0.97356,1.11391 -1.28932,1.81559c-0.31575,0.70168 -0.47363,1.46474 -0.47363,2.28922v18.49786z" fill="url(#color-4)"/><path d="M219.97484,227.75775c-2.57865,0 -4.90294,-0.70168 -6.97287,-2.10502c-2.05239,-1.40334 -3.68378,-3.30664 -4.89417,-5.70986c-1.19284,-2.42077 -1.78927,-5.1836 -1.78927,-8.2885c0,-3.1049 0.6052,-5.85897 1.81559,-8.2622c1.22793,-2.42077 2.8944,-4.31529 4.99942,-5.68355c2.10502,-1.36826 4.49949,-2.05239 7.18338,-2.05239c1.50859,0 2.8944,0.22805 4.15741,0.68413c1.28056,0.43855 2.39447,1.05251 3.34173,1.84189c0.79068,0.64425 1.48358,1.37406 2.07871,2.18942v-4.05763h8.20957v30.86485h-8.34113v-4.01787c-0.62177,0.78204 -1.3673,1.48983 -2.23657,2.12336c-1.03496,0.7543 -2.19272,1.35949 -3.47328,1.81559c-1.28056,0.43855 -2.64005,0.65783 -4.07847,0.65783zM222.23773,220.57437c1.56122,0 2.92072,-0.36838 4.07848,-1.10513c1.17531,-0.73676 2.07871,-1.77172 2.71022,-3.1049c0.64905,-1.35071 0.97358,-2.92071 0.97358,-4.70997c0,-1.75419 -0.32453,-3.28908 -0.97356,-4.60472c-0.63151,-1.33318 -1.53491,-2.37692 -2.7102,-3.13121c-1.15776,-0.7543 -2.51725,-1.13144 -4.07847,-1.13144c-1.50859,0 -2.84178,0.37715 -3.99954,1.13146c-1.14021,0.7543 -2.04362,1.79804 -2.7102,3.13122c-0.66658,1.31564 -0.99988,2.85055 -0.99988,4.60474c0,1.78927 0.3333,3.35926 0.99988,4.70999c0.66658,1.33318 1.56999,2.36815 2.71022,3.1049c1.15776,0.73676 2.49094,1.10513 3.99954,1.10513z" fill="url(#color-5)"/><path d="M182.96891,227.75775c-3.15753,0 -6.05193,-0.53504 -8.6832,-1.60508c-2.61373,-1.07006 -4.87662,-2.55233 -6.78869,-4.44684c-1.91206,-1.91206 -3.38558,-4.14864 -4.42054,-6.70974c-1.01743,-2.57865 -1.52614,-5.3678 -1.52614,-8.36745c0,-2.99965 0.53503,-5.77125 1.60509,-8.31482c1.07006,-2.54357 2.58742,-4.75384 4.55211,-6.63081c1.96469,-1.89452 4.26266,-3.36803 6.89394,-4.42054c2.64882,-1.05251 5.552,-1.57876 8.70952,-1.57876c2.17519,0 4.25389,0.29821 6.23613,0.89463c1.99977,0.57888 3.81535,1.37704 5.44674,2.39447c1.63139,0.99988 2.99088,2.15764 4.07848,3.47328l-5.42042,5.73618c-1.01743,-0.98234 -2.06994,-1.80681 -3.15753,-2.4734c-1.08759,-0.68413 -2.24535,-1.21039 -3.47328,-1.57876c-1.22793,-0.38593 -2.48217,-0.57888 -3.76271,-0.57888c-1.82434,0 -3.50836,0.3333 -5.05204,0.99988c-1.54369,0.66658 -2.90317,1.58754 -4.07847,2.76285c-1.15776,1.15776 -2.06117,2.5348 -2.7102,4.13111c-0.63151,1.59631 -0.94726,3.32418 -0.94726,5.18362c0,1.84189 0.34207,3.56976 1.02621,5.18362c0.68413,1.61384 1.61384,3.0172 2.78915,4.21004c1.19284,1.17531 2.58742,2.10502 4.18373,2.78915c1.59631,0.68413 3.30663,1.02621 5.13099,1.02621c1.33318,0 2.56987,-0.19295 3.7101,-0.57888c1.14021,-0.40346 2.14887,-0.96481 3.02597,-1.68401c0.87709,-0.71921 1.56122,-1.56122 2.05239,-2.52602c0.45539,-0.91078 0.69967,-1.86681 0.73285,-2.86808h-10.49487v-7.28862h18.89254c0.03508,0.421 0.07895,0.94726 0.13157,1.57876c0.07017,0.61396 0.11402,1.22793 0.13157,1.84189c0.01755,0.59643 0.02632,1.07006 0.02632,1.42089c0,2.64882 -0.47363,5.07837 -1.42089,7.28864c-0.94726,2.21027 -2.27167,4.11356 -3.97321,5.70987c-1.68401,1.59631 -3.67501,2.833 -5.97298,3.7101c-2.29797,0.87709 -4.78892,1.31564 -7.47282,1.31564z" fill="url(#color-6)"/><path d="M163.93701,175.81641v-5.94668l20.07799,-26.78636h-18.55182v-8.13063h30.39122v5.89405l-20.19873,27.15474h20.85654v7.81489z" fill="url(#color-7)"/><path d="M316.43213,227.75775c-3.35048,0 -6.27998,-0.67537 -8.78845,-2.02608c-2.50848,-1.36826 -4.45562,-3.23646 -5.84143,-5.6046c-1.36823,-2.38569 -2.05234,-5.11344 -2.05234,-8.18325c0,-2.40322 0.38591,-4.59596 1.15771,-6.57818c0.78938,-1.99977 1.87697,-3.72763 3.26278,-5.1836c1.40334,-1.45597 3.06982,-2.57865 4.99942,-3.36803c1.92959,-0.80693 4.01708,-1.21039 6.26243,-1.21039c2.10502,0 4.05216,0.3947 5.84143,1.18408c1.78927,0.77183 3.33295,1.85067 4.63104,3.23647c1.31564,1.36826 2.32429,2.99965 3.02597,4.89417c0.70168,1.87697 1.00866,3.91183 0.92095,6.10455l-0.05263,2.55234h-22.01523c0.19349,0.93931 0.51517,1.79886 0.96504,2.57865c0.80693,1.35071 1.93837,2.412 3.39435,3.18385c1.45597,0.7543 3.17508,1.13146 5.1573,1.13146c1.36826,0 2.61373,-0.2105 3.73641,-0.63151c1.14021,-0.43855 2.3506,-1.18406 3.63116,-2.23657l3.97323,5.552c-1.14021,1.01743 -2.39445,1.86821 -3.76271,2.55234c-1.35071,0.66658 -2.7453,1.17531 -4.18372,1.52614c-1.43844,0.35083 -2.85932,0.52625 -4.26266,0.52625zM322.03675,208.26001c-0.07017,-1.05251 -0.41223,-1.99099 -1.02619,-2.81545c-0.59643,-0.84201 -1.36826,-1.49982 -2.31552,-1.97345c-0.92971,-0.49118 -1.97345,-0.73676 -3.13121,-0.73676c-1.71909,0 -3.17508,0.3333 -4.36791,0.99988c-1.17531,0.64905 -2.0787,1.61384 -2.7102,2.8944c-0.27214,0.5676 -0.48395,1.19033 -0.63546,1.86821h14.18653z" fill="url(#color-8)"/><path d="M294.36495,175.81641v-30.86484h7.94645l0.15197,4.03532c0.22749,-0.29154 0.47506,-0.57537 0.74267,-0.85148c1.12268,-1.15776 2.45585,-2.08747 3.99954,-2.78915c1.56122,-0.70168 3.20138,-1.05251 4.92049,-1.05251c2.33307,0 4.28021,0.47363 5.84143,1.42089c1.57876,0.92971 2.76285,2.34183 3.55223,4.23635c0.80693,1.87697 1.21039,4.19249 1.21039,6.94656v18.91886h-8.2885v-18.26104c0,-1.40334 -0.19295,-2.56987 -0.57888,-3.49959c-0.38593,-0.94726 -0.98234,-1.63139 -1.78927,-2.05239c-0.78938,-0.421 -1.76294,-0.61396 -2.92071,-0.57888c-0.94726,0 -1.82434,0.1491 -2.63127,0.44732c-0.78938,0.28067 -1.46474,0.6929 -2.02607,1.23671c-0.56133,0.5438 -1.00866,1.16653 -1.34194,1.86821c-0.3333,0.70168 -0.49993,1.46474 -0.49993,2.28922v18.55049c-0.89463,0 -5.77125,0 -6.47293,0c-0.70168,0 -1.30686,0 -1.81557,0z" fill="url(#color-9)"/><path d="M359.15497,176.39529c-2.24535,0 -4.18372,-0.49118 -5.81511,-1.47351c-1.61384,-0.99988 -2.85932,-2.42077 -3.73641,-4.26266c-0.85955,-1.85944 -1.28932,-4.08724 -1.28932,-6.68343v-19.02411h8.28852v17.68216c0,1.40334 0.22805,2.6225 0.68413,3.65748c0.47363,1.01743 1.13146,1.79804 1.97346,2.34184c0.85955,0.5438 1.91206,0.8157 3.15753,0.8157c0.89463,0 1.71909,-0.14033 2.4734,-0.421c0.77183,-0.29821 1.43844,-0.71921 1.99977,-1.26301c0.56133,-0.5438 0.99988,-1.18406 1.31564,-1.92082c0.31575,-0.73676 0.47363,-1.53491 0.47363,-2.39445v-18.49784h8.28852v30.86485h-7.89382l-0.19304,-4.24698c-0.27529,0.38424 -0.57932,0.75616 -0.9121,1.11576c-1.08759,1.15776 -2.39445,2.06994 -3.92059,2.73652c-1.50859,0.64905 -3.13998,0.97358 -4.89417,0.97358z" fill="url(#color-10)"/><path d="M346.36946,227.75775c-2.87685,0 -5.43797,-0.47363 -7.68332,-1.42089c-2.22782,-0.96481 -4.02584,-2.28044 -5.3941,-3.94691l5.20992,-4.42054c1.15776,1.28056 2.4734,2.20149 3.94691,2.76284c1.49106,0.56133 2.97335,0.84201 4.44686,0.84201c0.59643,0 1.13146,-0.0614 1.60509,-0.18418c0.49118,-0.14033 0.91218,-0.3333 1.26301,-0.57888c0.35083,-0.26313 0.61396,-0.57888 0.78938,-0.94726c0.17542,-0.36838 0.26313,-0.77183 0.26313,-1.21039c0,-0.85955 -0.35083,-1.51736 -1.05251,-1.97345c-0.38593,-0.24558 -0.99111,-0.50871 -1.81557,-0.78938c-0.80693,-0.29821 -1.85944,-0.62273 -3.15753,-0.97356c-1.98222,-0.50871 -3.66624,-1.09636 -5.05204,-1.76294c-1.36826,-0.68413 -2.46462,-1.45597 -3.28908,-2.31552c-0.70168,-0.82446 -1.23669,-1.71032 -1.60507,-2.65758c-0.36838,-0.94726 -0.55256,-2.00854 -0.55256,-3.18383c0,-1.40334 0.30698,-2.67513 0.92095,-3.81534c0.63151,-1.15776 1.49983,-2.1401 2.60497,-2.94703c1.12268,-0.82446 2.40322,-1.45597 3.84166,-1.89452c1.43844,-0.45608 2.9558,-0.68413 4.55211,-0.68413c1.59631,0 3.14875,0.20173 4.65736,0.6052c1.52614,0.38593 2.93825,0.93848 4.23636,1.65771c1.29809,0.71921 2.43832,1.56122 3.42066,2.52602l-4.44684,4.89417c-0.70168,-0.64905 -1.49106,-1.24546 -2.36815,-1.78927c-0.87709,-0.5438 -1.78049,-0.97356 -2.7102,-1.28932c-0.92971,-0.31575 -1.76294,-0.47363 -2.4997,-0.47363c-0.66658,0 -1.26301,0.0614 -1.78927,0.1842c-0.52625,0.10525 -0.96481,0.28945 -1.31564,0.55258c-0.35083,0.24558 -0.61396,0.5438 -0.78938,0.89463c-0.17542,0.35083 -0.26313,0.74553 -0.26313,1.18408c0,0.421 0.10525,0.82446 0.31575,1.21039c0.22805,0.38593 0.53503,0.71921 0.92095,0.99988c0.421,0.22805 1.05251,0.49995 1.89452,0.8157c0.84201,0.31575 1.98222,0.66658 3.42066,1.05251c1.85944,0.50871 3.4382,1.07883 4.73629,1.71034c1.31564,0.61396 2.35937,1.32441 3.13122,2.13134c0.66658,0.70168 1.14899,1.49983 1.44721,2.39447c0.31575,0.89463 0.47363,1.88574 0.47363,2.97335c0,1.91206 -0.53503,3.61361 -1.60507,5.10467c-1.07006,1.47351 -2.54357,2.64005 -4.42054,3.4996c-1.85944,0.84201 -3.95568,1.26301 -6.28874,1.26301z" fill="url(#color-11)"/><path d="M259.8354,175.81641v-43.1792h8.28852v43.17921z" fill="url(#color-12)"/><path d="M277.21671,175.81641v-30.86484h8.28852v30.86485z" fill="url(#color-13)"/><path d="M204.67312,175.81641v-30.86484h8.28852v30.86485z" fill="url(#color-14)"/><path d="M331.37638,175.81641v-30.86484h8.28852v30.86485z" fill="url(#color-15)"/><path d="M335.45485,138.63651c-1.59631,0 -2.84178,-0.39468 -3.73641,-1.18406c-0.89463,-0.80693 -1.34194,-1.92959 -1.34194,-3.36803c0,-1.31564 0.45608,-2.39445 1.36826,-3.23646c0.92971,-0.84201 2.16642,-1.26301 3.7101,-1.26301c1.59631,0 2.84178,0.40346 3.73641,1.21039c0.89463,0.78938 1.34196,1.88574 1.34196,3.2891c0,1.33318 -0.45608,2.42955 -1.36826,3.2891c-0.91218,0.84201 -2.14887,1.26301 -3.71009,1.26301z" fill="url(#color-16)"/><path d="M208.75158,138.63651c-1.59631,0 -2.84178,-0.39468 -3.73641,-1.18406c-0.89463,-0.80693 -1.34194,-1.92959 -1.34194,-3.36803c0,-1.31564 0.45608,-2.39445 1.36826,-3.23646c0.92971,-0.84201 2.16642,-1.26301 3.7101,-1.26301c1.59631,0 2.84178,0.40346 3.73641,1.21039c0.89463,0.78938 1.34196,1.88574 1.34196,3.2891c0,1.33318 -0.45608,2.42955 -1.36826,3.2891c-0.91218,0.84201 -2.14887,1.26301 -3.71009,1.26301z" fill="url(#color-17)"/><path d="M281.29518,138.63651c-1.59631,0 -2.84178,-0.39468 -3.73641,-1.18406c-0.89463,-0.80693 -1.34194,-1.92959 -1.34194,-3.36803c0,-1.31564 0.45608,-2.39445 1.36826,-3.23646c0.92971,-0.84201 2.16642,-1.26301 3.7101,-1.26301c1.59631,0 2.84178,0.40346 3.73641,1.21039c0.89463,0.78938 1.34196,1.88574 1.34196,3.2891c0,1.33318 -0.45608,2.42955 -1.36826,3.2891c-0.91218,0.84201 -2.14887,1.26301 -3.71009,1.26301z" fill="url(#color-18)"/></g></g></g></svg>